<svg width="19" height="19" viewBox="0 0 19 19" fill="none" xmlns="http://www.w3.org/2000/svg">
<path fill-rule="evenodd" clip-rule="evenodd" d="M5.9375 5C5.9375 3.03249 7.53249 1.4375 9.5 1.4375C11.4675 1.4375 13.0625 3.03249 13.0625 5C13.0625 6.96751 11.4675 8.5625 9.5 8.5625C7.53249 8.5625 5.9375 6.96751 5.9375 5ZM9.5 2.5625C8.15381 2.5625 7.0625 3.65381 7.0625 5C7.0625 6.34619 8.15381 7.4375 9.5 7.4375C10.8462 7.4375 11.9375 6.34619 11.9375 5C11.9375 3.65381 10.8462 2.5625 9.5 2.5625Z" fill="#0FB4C3"/>
<path d="M13.8125 13C13.8125 12.6893 13.5607 12.4375 13.25 12.4375C12.9393 12.4375 12.6875 12.6893 12.6875 13V13.4375H12.2499C11.9392 13.4375 11.6874 13.6893 11.6874 14C11.6874 14.3107 11.9392 14.5625 12.2499 14.5625H12.6875V15C12.6875 15.3107 12.9393 15.5625 13.25 15.5625C13.5607 15.5625 13.8125 15.3107 13.8125 15V14.5625H14.2499C14.5605 14.5625 14.8124 14.3107 14.8124 14C14.8124 13.6893 14.5605 13.4375 14.2499 13.4375H13.8125V13Z" fill="#0FB4C3"/>
<path fill-rule="evenodd" clip-rule="evenodd" d="M13.1088 10.4402C13.1556 10.4384 13.2027 10.4375 13.25 10.4375C15.2175 10.4375 16.8125 12.0325 16.8125 14C16.8125 15.9675 15.2175 17.5625 13.25 17.5625C12.3653 17.5625 11.556 17.24 10.9331 16.7062C10.4743 16.7757 9.99405 16.8125 9.5 16.8125C7.9705 16.8125 6.55814 16.4594 5.50861 15.8597C4.475 15.2691 3.6875 14.3674 3.6875 13.25C3.6875 12.1326 4.475 11.2309 5.50861 10.6403C6.55814 10.0406 7.9705 9.6875 9.5 9.6875C10.8534 9.6875 12.1119 9.96377 13.1088 10.4402ZM13.25 11.5625C11.9038 11.5625 10.8125 12.6538 10.8125 14C10.8125 15.3462 11.9038 16.4375 13.25 16.4375C14.5962 16.4375 15.6875 15.3462 15.6875 14C15.6875 12.6538 14.5962 11.5625 13.25 11.5625ZM10.1007 15.6668C9.83691 15.1695 9.6875 14.6022 9.6875 14C9.6875 12.7467 10.3347 11.6445 11.3132 11.0095C10.7575 10.8833 10.1458 10.8125 9.5 10.8125C8.13001 10.8125 6.91737 11.131 6.06677 11.6171C5.20025 12.1122 4.8125 12.7105 4.8125 13.25C4.8125 13.7895 5.20025 14.3878 6.06677 14.8829C6.91737 15.369 8.13001 15.6875 9.5 15.6875C9.70362 15.6875 9.90408 15.6805 10.1007 15.6668Z" fill="#0FB4C3"/>
</svg>
