<svg width="18" height="19" viewBox="0 0 18 19" fill="none" xmlns="http://www.w3.org/2000/svg">
<path fill-rule="evenodd" clip-rule="evenodd" d="M9 1.4375C7.03249 1.4375 5.4375 3.03249 5.4375 5C5.4375 6.96751 7.03249 8.5625 9 8.5625C10.9675 8.5625 12.5625 6.96751 12.5625 5C12.5625 3.03249 10.9675 1.4375 9 1.4375ZM6.5625 5C6.5625 3.65381 7.65381 2.5625 9 2.5625C10.3462 2.5625 11.4375 3.65381 11.4375 5C11.4375 6.34619 10.3462 7.4375 9 7.4375C7.65381 7.4375 6.5625 6.34619 6.5625 5Z" fill="#F8F8FF"/>
<path d="M14.1416 12.9297C14.3646 13.146 14.3699 13.5022 14.1535 13.7251L12.7787 15.1418C12.6676 15.2562 12.5131 15.3181 12.3537 15.3121C12.1944 15.3061 12.045 15.2327 11.9429 15.1101L11.3178 14.3601C11.1189 14.1215 11.1511 13.7668 11.3897 13.5679C11.6284 13.369 11.9831 13.4012 12.182 13.6399L12.4068 13.9096L13.3462 12.9416C13.5626 12.7187 13.9187 12.7133 14.1416 12.9297Z" fill="#F8F8FF"/>
<path fill-rule="evenodd" clip-rule="evenodd" d="M10.4331 16.7062C9.97432 16.7757 9.49405 16.8125 9 16.8125C7.4705 16.8125 6.05814 16.4594 5.00861 15.8597C3.975 15.2691 3.1875 14.3674 3.1875 13.25C3.1875 12.1326 3.975 11.2309 5.00861 10.6403C6.05814 10.0406 7.4705 9.6875 9 9.6875C10.3534 9.6875 11.6119 9.96377 12.6088 10.4402C12.6556 10.4384 12.7027 10.4375 12.75 10.4375C14.7175 10.4375 16.3125 12.0325 16.3125 14C16.3125 15.9675 14.7175 17.5625 12.75 17.5625C11.8653 17.5625 11.056 17.24 10.4331 16.7062ZM10.3125 14C10.3125 12.6538 11.4038 11.5625 12.75 11.5625C14.0962 11.5625 15.1875 12.6538 15.1875 14C15.1875 15.3462 14.0962 16.4375 12.75 16.4375C11.4038 16.4375 10.3125 15.3462 10.3125 14ZM10.8132 11.0095C9.83472 11.6445 9.1875 12.7467 9.1875 14C9.1875 14.6022 9.33691 15.1695 9.60068 15.6668C9.40408 15.6805 9.20362 15.6875 9 15.6875C7.63001 15.6875 6.41737 15.369 5.56677 14.8829C4.70025 14.3878 4.3125 13.7895 4.3125 13.25C4.3125 12.7105 4.70025 12.1122 5.56677 11.6171C6.41737 11.131 7.63001 10.8125 9 10.8125C9.64583 10.8125 10.2575 10.8833 10.8132 11.0095Z" fill="#F8F8FF"/>
</svg>
