<svg width="74" height="74" viewBox="0 0 74 74" fill="none" xmlns="http://www.w3.org/2000/svg">
<circle cx="37" cy="37" r="37" fill="#FF6347" fill-opacity="0.05"/>
<circle cx="36.5" cy="37.5" r="28.5" fill="#FF6347" fill-opacity="0.15"/>
<circle cx="37" cy="38" r="18.5" stroke="#FF6347" stroke-width="3"/>
<path d="M37.2299 27.6543C38.1821 27.6543 38.954 28.4262 38.954 29.3784V38.5738C38.954 39.5261 38.1821 40.298 37.2299 40.298C36.2777 40.298 35.5057 39.5261 35.5057 38.5738V29.3784C35.5057 28.4262 36.2777 27.6543 37.2299 27.6543Z" fill="#FF6347"/>
<path d="M37.2299 47.7692C38.4995 47.7692 39.5287 46.74 39.5287 45.4704C39.5287 44.2008 38.4995 43.1715 37.2299 43.1715C35.9603 43.1715 34.931 44.2008 34.931 45.4704C34.931 46.74 35.9603 47.7692 37.2299 47.7692Z" fill="#FF6347"/>
</svg>
