<svg width="22" height="22" viewBox="0 0 22 22" fill="none" xmlns="http://www.w3.org/2000/svg">
<path fill-rule="evenodd" clip-rule="evenodd" d="M15.75 10.6045C16.1642 10.6045 16.5 10.2654 16.5 9.84701V2.58614L18.2197 4.32292C18.5126 4.61873 18.9874 4.61873 19.2803 4.32292C19.5732 4.02711 19.5732 3.54751 19.2803 3.25171L16.2803 0.221856C15.9874 -0.0739517 15.5126 -0.0739517 15.2197 0.221856L12.2197 3.25171C11.9268 3.54751 11.9268 4.02711 12.2197 4.32292C12.5126 4.61873 12.9874 4.61873 13.2803 4.32292L15 2.58614V9.84701C15 10.2654 15.3358 10.6045 15.75 10.6045Z" fill="#111111"/>
<path fill-rule="evenodd" clip-rule="evenodd" d="M10.75 4.54436e-07L10.6926 2.13645e-07C8.38423 -1.27891e-05 6.57519 -2.30819e-05 5.16371 0.191635C3.71897 0.387807 2.57895 0.797181 1.68414 1.70089C0.789327 2.60461 0.383986 3.75597 0.189747 5.21509C-2.28584e-05 6.64062 -1.26631e-05 8.46765 2.1154e-07 10.799V10.9149C-1.26631e-05 13.2463 -2.28584e-05 15.0733 0.189747 16.4988C0.383986 17.958 0.789327 19.1093 1.68414 20.013C2.57895 20.9167 3.71897 21.3261 5.16371 21.5223C6.57519 21.714 8.38423 21.7139 10.6926 21.7139H10.8074C13.1158 21.7139 14.9248 21.714 16.3363 21.5223C17.781 21.3261 18.9211 20.9167 19.8159 20.013C20.7107 19.1093 21.116 17.958 21.3103 16.4988C21.5 15.0733 21.5 13.2463 21.5 10.9149V10.857C21.5 10.4386 21.1642 10.0995 20.75 10.0995C20.3358 10.0995 20 10.4386 20 10.857C20 13.2589 19.9984 14.9841 19.8236 16.297C19.8167 16.3488 19.8096 16.3997 19.8022 16.4499L17.0282 13.9285C15.7288 12.7474 13.7937 12.6297 12.3634 13.6449L12.0652 13.8566C11.5682 14.2093 10.8921 14.1502 10.4625 13.7164L6.17282 9.38398C5.03741 8.23727 3.21613 8.17602 2.00771 9.24391L1.50098 9.69171C1.50552 7.8816 1.53124 6.50713 1.67637 5.41695C1.84825 4.12582 2.17514 3.34743 2.7448 2.77211C3.31445 2.19678 4.08517 1.86664 5.36358 1.69305C6.66356 1.51653 8.37177 1.51493 10.75 1.51493C11.1642 1.51493 11.5 1.1758 11.5 0.757463C11.5 0.339128 11.1642 4.54436e-07 10.75 4.54436e-07ZM1.67637 16.297C1.84825 17.5881 2.17514 18.3665 2.7448 18.9418C3.31445 19.5171 4.08517 19.8473 5.36358 20.0209C6.66356 20.1974 8.37177 20.199 10.75 20.199C13.1282 20.199 14.8364 20.1974 16.1364 20.0209C17.4148 19.8473 18.1855 19.5171 18.7552 18.9418C18.9987 18.6959 19.1979 18.4128 19.3596 18.0684C19.3207 18.0444 19.2834 18.0165 19.2483 17.9845L16.0247 15.0545C15.2451 14.3458 14.084 14.2753 13.2258 14.8844L12.9276 15.096C11.8343 15.8721 10.3468 15.7419 9.40188 14.7876L5.11216 10.4552C4.53515 9.87244 3.60958 9.84131 2.99546 10.384L1.50038 11.7052C1.50296 13.6731 1.52289 15.144 1.67637 16.297Z" fill="#111111"/>
</svg>
