<svg width="16" height="16" viewBox="0 0 16 16" fill="none" xmlns="http://www.w3.org/2000/svg">
<path d="M4 5.33334V10.6667H9.33333V5.33334H4Z" fill="white"/>
<path d="M1 5.66666V10.3333L2.66667 10.6667L4.33333 10.3333V5.66666L2.66667 5.33333L1 5.66666Z" fill="#1E88E5"/>
<path d="M12.3333 8.00001V12.6667C12.3333 13.219 11.8857 13.6667 11.3333 13.6667H4.33333L4 12L4.33333 10.3333H9V8.00001L10.6667 7.66667L12.3333 8.00001Z" fill="#4CAF50"/>
<path d="M12.3333 3.33333V7.99999H9V5.66666H4.33333L4 3.99999L4.33333 2.33333H11.3333C11.8857 2.33333 12.3333 2.78099 12.3333 3.33333Z" fill="#FBC02D"/>
<path d="M4.33333 10.3333V13.6667H2C1.44767 13.6667 1 13.219 1 12.6667V10.3333H4.33333Z" fill="#1565C0"/>
<path d="M4.33333 2.33333V5.66666H1L4.33333 2.33333Z" fill="#E53935"/>
<path d="M12.6667 8L12.3333 10.8167L9 8L12.3333 5.18333L12.6667 8Z" fill="#2E7D32"/>
<path d="M15.3333 3.37V12.63C15.3333 12.91 15.0067 13.0667 14.79 12.89L12.3333 10.8167V5.18334L14.79 3.11C15.0067 2.93334 15.3333 3.09 15.3333 3.37Z" fill="#4CAF50"/>
</svg>
