<svg width="26" height="24" viewBox="0 0 26 24" fill="none" xmlns="http://www.w3.org/2000/svg">
<path fill-rule="evenodd" clip-rule="evenodd" d="M12.5361 1.25C9.79553 1.25 7.57388 3.37665 7.57388 6C7.57388 8.62335 9.79553 10.75 12.5361 10.75C15.2766 10.75 17.4983 8.62335 17.4983 6C17.4983 3.37665 15.2766 1.25 12.5361 1.25ZM9.14089 6C9.14089 4.20507 10.661 2.75 12.5361 2.75C14.4112 2.75 15.9313 4.20507 15.9313 6C15.9313 7.79493 14.4112 9.25 12.5361 9.25C10.661 9.25 9.14089 7.79493 9.14089 6Z" fill="#111111"/>
<path d="M18.8041 3.25C18.3714 3.25 18.0206 3.58579 18.0206 4C18.0206 4.41421 18.3714 4.75 18.8041 4.75C20.2421 4.75 21.1546 5.65573 21.1546 6.5C21.1546 7.34427 20.2421 8.25 18.8041 8.25C18.3714 8.25 18.0206 8.58579 18.0206 9C18.0206 9.41421 18.3714 9.75 18.8041 9.75C20.8279 9.75 22.7216 8.41715 22.7216 6.5C22.7216 4.58285 20.8279 3.25 18.8041 3.25Z" fill="#111111"/>
<path d="M7.05154 4C7.05154 3.58579 6.70075 3.25 6.26804 3.25C4.24427 3.25 2.35051 4.58285 2.35051 6.5C2.35051 8.41715 4.24427 9.75 6.26804 9.75C6.70075 9.75 7.05154 9.41421 7.05154 9C7.05154 8.58579 6.70075 8.25 6.26804 8.25C4.83006 8.25 3.91752 7.34427 3.91752 6.5C3.91752 5.65573 4.83006 4.75 6.26804 4.75C6.70075 4.75 7.05154 4.41421 7.05154 4Z" fill="#111111"/>
<path fill-rule="evenodd" clip-rule="evenodd" d="M12.5361 12.25C10.6721 12.25 8.94914 12.7308 7.66929 13.5475C6.39492 14.3608 5.48453 15.5666 5.48453 17C5.48453 18.4334 6.39492 19.6392 7.66929 20.4525C8.94914 21.2692 10.6721 21.75 12.5361 21.75C14.4001 21.75 16.123 21.2692 17.4028 20.4525C18.6772 19.6392 19.5876 18.4334 19.5876 17C19.5876 15.5666 18.6772 14.3608 17.4028 13.5475C16.123 12.7308 14.4001 12.25 12.5361 12.25ZM7.05154 17C7.05154 16.2242 7.5443 15.4301 8.53851 14.7956C9.52725 14.1646 10.9383 13.75 12.5361 13.75C14.1338 13.75 15.5449 14.1646 16.5336 14.7956C17.5278 15.4301 18.0206 16.2242 18.0206 17C18.0206 17.7758 17.5278 18.5699 16.5336 19.2044C15.5449 19.8354 14.1338 20.25 12.5361 20.25C10.9383 20.25 9.52725 19.8354 8.53851 19.2044C7.5443 18.5699 7.05154 17.7758 7.05154 17Z" fill="#111111"/>
<path d="M20.1281 13.8393C20.2208 13.4347 20.6386 13.1787 21.0613 13.2674C22.0661 13.4783 22.9716 13.8593 23.6439 14.3859C24.3155 14.912 24.811 15.6352 24.811 16.5C24.811 17.3648 24.3155 18.088 23.6439 18.6141C22.9716 19.1407 22.0661 19.5217 21.0613 19.7326C20.6386 19.8213 20.2208 19.5653 20.1281 19.1607C20.0354 18.7561 20.3029 18.3561 20.7256 18.2674C21.5534 18.0936 22.2149 17.7952 22.6515 17.4532C23.0887 17.1108 23.244 16.7763 23.244 16.5C23.244 16.2237 23.0887 15.8892 22.6515 15.5468C22.2149 15.2048 21.5534 14.9064 20.7256 14.7326C20.3029 14.6439 20.0354 14.2439 20.1281 13.8393Z" fill="#111111"/>
<path d="M4.01086 13.2674C4.43354 13.1787 4.85132 13.4347 4.94401 13.8393C5.0367 14.2439 4.76919 14.6439 4.34652 14.7326C3.51876 14.9064 2.85723 15.2048 2.42063 15.5468C1.98345 15.8892 1.82818 16.2237 1.82818 16.5C1.82818 16.7763 1.98345 17.1108 2.42063 17.4532C2.85723 17.7952 3.51876 18.0936 4.34652 18.2674C4.76919 18.3561 5.0367 18.7561 4.94401 19.1607C4.85132 19.5653 4.43354 19.8213 4.01086 19.7326C3.00601 19.5217 2.10053 19.1407 1.42827 18.6141C0.756604 18.088 0.261169 17.3648 0.261169 16.5C0.261169 15.6352 0.756604 14.912 1.42827 14.3859C2.10053 13.8593 3.00601 13.4783 4.01086 13.2674Z" fill="#111111"/>
</svg>
