<svg width="74" height="74" viewBox="0 0 74 74" fill="none" xmlns="http://www.w3.org/2000/svg">
<circle cx="37" cy="37" r="37" fill="#0197F6" fill-opacity="0.05"/>
<circle cx="36.5" cy="37.5" r="28.5" fill="#0197F6" fill-opacity="0.15"/>
<path fill-rule="evenodd" clip-rule="evenodd" d="M20.8847 36.6672C21.0041 28.3995 27.7937 21.75 36.1315 21.75C41.6455 21.75 46.4784 24.6571 49.1557 29.012C49.5173 29.6001 49.3336 30.37 48.7455 30.7315C48.1574 31.0931 47.3875 30.9094 47.026 30.3213C44.7878 26.6807 40.7474 24.25 36.1315 24.25C29.1575 24.25 23.5062 29.7962 23.385 36.6636L24.0523 36.0015C24.5424 35.5153 25.3339 35.5184 25.8201 36.0085C26.3063 36.4986 26.3032 37.29 25.8131 37.7762L23.0135 40.554C22.5261 41.0375 21.74 41.0375 21.2527 40.554L18.453 37.7762C17.9629 37.29 17.9598 36.4986 18.446 36.0085C18.9323 35.5184 19.7237 35.5153 20.2138 36.0015L20.8847 36.6672ZM48.9774 35.4443C49.4644 34.963 50.2479 34.963 50.7348 35.4443L53.5452 38.2221C54.0362 38.7074 54.0408 39.4988 53.5555 39.9898C53.0702 40.4808 52.2788 40.4854 51.7878 40.0001L51.1046 39.3249C50.989 47.6006 44.1695 54.25 35.8042 54.25C30.273 54.25 25.4231 51.345 22.7354 46.9898C22.3728 46.4023 22.5552 45.6321 23.1426 45.2696C23.7301 44.907 24.5003 45.0894 24.8629 45.6769C27.1094 49.3172 31.1667 51.75 35.8042 51.75C42.8146 51.75 48.487 46.1951 48.6043 39.3282L47.9244 40.0001C47.4335 40.4854 46.642 40.4808 46.1567 39.9898C45.6714 39.4988 45.676 38.7074 46.167 38.2221L48.9774 35.4443Z" fill="#0197F6"/>
</svg>
